<?xml version="1.0" standalone="no"?>
<!DOCTYPE svg PUBLIC "-//W3C//DTD SVG 20010904//EN"
 "http://www.w3.org/TR/2001/REC-SVG-20010904/DTD/svg10.dtd">
<svg version="1.0" xmlns="http://www.w3.org/2000/svg"
 width="300.000000pt" height="169.000000pt" viewBox="0 0 300.000000 169.000000"
 preserveAspectRatio="xMidYMid meet">
<metadata>
Created by potrace 1.10, written by Peter Selinger 2001-2011
</metadata>
<g transform="translate(0.000000,169.000000) scale(0.100000,-0.100000)"
fill="#000000" stroke="none">
<path d="M593 1356 c-29 -52 -53 -96 -53 -99 0 -3 23 -44 50 -92 28 -48 50
-88 50 -91 0 -2 -18 -4 -39 -4 l-40 0 -73 -127 c-40 -70 -74 -131 -76 -135 -2
-4 32 -68 75 -142 l78 -136 152 0 152 0 19 28 c28 39 95 162 89 162 -3 0 -29
-40 -57 -90 l-52 -90 -148 0 -148 0 -77 131 -76 131 73 128 73 128 59 6 c32 3
101 6 152 6 l93 0 56 -100 c32 -55 59 -100 61 -100 3 0 0 9 -6 19 -5 11 -10
22 -10 25 0 3 35 6 78 6 l78 0 43 75 42 75 -42 75 -43 75 -78 0 c-77 0 -78 0
-73 23 5 17 -8 49 -47 115 l-53 92 -115 0 -115 0 -52 -94z m316 16 c71 -121
70 -109 15 -206 l-49 -85 -112 -1 -112 0 -50 86 c-28 47 -51 88 -51 91 0 3 23
46 51 94 l51 89 108 0 109 0 40 -68z m251 -231 l42 -70 -42 -70 -41 -71 -79 0
-78 0 -41 71 -41 71 40 69 41 69 79 0 79 0 41 -69z"/>
<path d="M592 848 c-15 -15 -16 -72 -2 -99 14 -25 100 -28 100 -4 0 11 -11 15
-40 15 -39 0 -40 1 -40 35 0 34 1 35 40 35 29 0 40 4 40 15 0 19 -80 21 -98 3z"/>
<path d="M714 846 c-3 -7 -4 -35 -2 -62 l3 -49 58 -3 c46 -2 57 0 57 13 0 11
-12 15 -50 15 -27 0 -50 5 -50 10 0 6 23 10 50 10 38 0 50 4 50 15 0 11 -12
15 -50 15 -27 0 -50 5 -50 10 0 6 23 10 50 10 38 0 50 4 50 15 0 21 -108 22
-116 1z"/>
<path d="M852 798 l3 -63 53 -3 c42 -2 52 0 52 12 0 12 -11 16 -40 16 l-40 0
0 50 c0 38 -4 50 -15 50 -13 0 -15 -11 -13 -62z"/>
<path d="M970 811 c0 -75 5 -81 61 -81 37 0 49 4 49 15 0 11 -11 15 -40 15
l-40 0 0 50 c0 38 -4 50 -15 50 -11 0 -15 -12 -15 -49z"/>
<path d="M1098 803 c5 -63 12 -73 55 -73 53 0 67 15 67 75 0 42 -3 55 -15 55
-11 0 -15 -12 -15 -49 0 -52 -11 -64 -49 -54 -18 4 -21 13 -21 54 0 34 -4 49
-13 49 -10 0 -13 -14 -9 -57z"/>
<path d="M1240 807 c0 -29 5 -58 12 -65 7 -7 35 -12 63 -12 51 0 51 0 74 47
l23 47 14 -24 c18 -34 17 -38 -8 -42 -12 -2 -23 -9 -26 -15 -2 -9 10 -13 42
-13 25 0 46 3 46 8 -1 16 -56 116 -66 119 -6 2 -21 -19 -34 -47 -23 -49 -25
-50 -67 -50 l-43 0 0 50 c0 38 -4 50 -15 50 -11 0 -15 -13 -15 -53z"/>
<path d="M1513 853 c-16 -6 -18 -123 -3 -123 6 0 10 23 10 50 0 38 4 50 15 50
11 0 15 -12 15 -50 0 -27 5 -50 10 -50 6 0 10 23 10 50 0 38 4 50 15 50 11 0
15 -12 15 -50 0 -27 5 -50 10 -50 11 0 14 119 3 121 -26 5 -90 6 -100 2z"/>
<path d="M1013 808 c1 -15 6 -23 11 -18 4 4 4 16 -2 26 -9 16 -10 14 -9 -8z"/>
</g>
</svg>
